<?xml version="1.0" encoding="UTF-8" standalone="no"?><!DOCTYPE svg PUBLIC "-//W3C//DTD SVG 1.1//EN" "http://www.w3.org/Graphics/SVG/1.1/DTD/svg11.dtd"><svg width="100%" height="100%" viewBox="0 0 3334 1000" version="1.1" xmlns="http://www.w3.org/2000/svg" xmlns:xlink="http://www.w3.org/1999/xlink" xml:space="preserve" xmlns:serif="http://www.serif.com/" style="fill-rule:evenodd;clip-rule:evenodd;stroke-linejoin:round;stroke-miterlimit:2;"><g><path d="M978.368,388.563c0,310.468 -350.478,597.999 -350.478,597.999c-20.482,16.806 -53.996,16.806 -74.479,0c0,0 -350.478,-287.531 -350.478,-597.999c0,-214.139 173.587,-387.73 387.722,-387.73c214.126,0 387.713,173.591 387.713,387.73Z" style="fill:url(#_Linear1);"/><path d="M664.665,372.971c0,46.069 -37.351,83.411 -83.418,83.411c-46.068,0 -83.418,-37.342 -83.418,-83.411c0,-46.069 37.35,-83.42 83.418,-83.42c46.067,0 83.418,37.351 83.418,83.42Z" style="fill:#fff;fill-rule:nonzero;"/><path d="M536.845,410.57c-11.571,-12.199 -17.054,-26.587 -16.479,-43.225c0.567,-16.602 7.026,-30.582 19.402,-41.958c12.394,-11.348 27.029,-16.708 43.942,-16.133c16.938,0.585 31.175,6.937 42.727,19.11c11.597,12.199 17.09,26.587 16.523,43.19c-0.576,16.637 -7.034,30.609 -19.437,41.993c-12.368,11.34 -27.012,16.709 -43.951,16.124c-16.903,-0.576 -31.14,-6.937 -42.727,-19.101Zm-206.154,495.726l353.499,-324.669c12.554,-11.473 23.371,-27.136 32.531,-46.893c9.152,-19.809 14.007,-37.989 14.574,-54.627l6.715,-195.703c0.567,-16.328 -5.041,-30.636 -16.744,-42.977c-11.729,-12.341 -25.878,-18.782 -42.489,-19.358l-199.234,-6.83c-16.93,-0.585 -35.72,2.915 -56.45,10.542c-20.722,7.611 -37.2,17.179 -49.435,28.669l-354.464,324.625c-12.191,11.19 -18.587,25.116 -19.154,41.71c-0.567,16.328 4.864,30.804 16.239,43.438l227.725,239.096c11.429,11.987 25.577,18.295 42.48,18.88c16.62,0.567 31.344,-4.749 44.207,-15.903Z" style="fill:url(#_Linear2);"/><path d="M1337.64,529.773c0,11.96 -2.392,22.326 -7.176,32.691c-5.582,10.366 -11.96,19.934 -19.934,27.11c-8.77,7.973 -18.338,14.352 -29.501,18.339c-11.96,4.784 -23.919,7.176 -37.474,7.176c-33.488,0 -50.232,-14.353 -50.232,-43.854c0,-16.744 5.582,-30.299 16.744,-39.07c11.163,-8.771 31.893,-16.744 61.394,-22.326c19.136,-3.986 33.488,-7.176 43.853,-10.365c10.366,-3.19 17.542,-7.176 23.123,-12.758l-0.797,43.057Zm104.449,149.103l0,-247.974c0,-24.717 -3.189,-46.246 -8.77,-66.179c-5.582,-19.136 -15.15,-35.083 -27.907,-48.638c-13.554,-12.758 -30.298,-22.326 -51.826,-29.502c-21.528,-7.176 -47.84,-10.365 -78.935,-10.365c-31.096,0 -58.205,3.189 -79.733,9.568c-21.528,7.176 -39.069,16.744 -52.623,28.704c-13.555,11.961 -23.92,27.11 -29.501,43.854c-6.379,16.744 -9.568,35.881 -10.366,55.814l96.477,0c2.392,-17.541 9.568,-31.894 19.933,-42.259c10.365,-10.365 27.109,-15.947 51.029,-15.947c19.933,0 36.677,3.19 48.637,10.366c11.96,7.176 17.541,17.541 17.541,30.299c0,13.554 -4.784,23.92 -13.555,29.501c-8.77,6.379 -26.311,11.163 -52.623,15.15c-26.312,3.987 -50.232,7.973 -71.76,11.96c-22.325,4.784 -41.461,11.96 -57.407,21.528c-15.947,9.568 -28.704,22.326 -37.474,39.07c-8.771,16.744 -13.555,39.867 -13.555,67.774c0,31.894 10.365,57.409 31.893,77.343c20.731,19.933 53.421,30.299 98.869,30.299c26.311,0 50.231,-3.987 70.164,-12.758c19.933,-7.973 36.677,-19.136 48.637,-32.691c0.797,13.555 3.189,24.718 6.379,35.083l96.476,0Z" style="fill:#030404;fill-rule:nonzero;"/><path d="M2048.85,678.885l0,-271.894c0,-18.339 -3.19,-35.083 -9.568,-51.03c-7.176,-15.947 -15.947,-30.299 -27.907,-42.259c-11.96,-11.96 -25.514,-20.731 -42.258,-27.907c-16.744,-6.379 -34.285,-9.568 -54.218,-9.568c-24.717,0 -46.245,4.784 -63.786,14.352c-17.541,10.365 -31.893,26.312 -42.258,47.84c-7.177,-11.162 -15.15,-20.731 -22.326,-28.704c-7.176,-7.973 -15.149,-14.352 -23.122,-19.933c-8.771,-4.785 -17.541,-7.974 -27.907,-10.366c-10.365,-2.392 -22.325,-3.189 -35.879,-3.189c-26.312,0 -48.637,4.784 -66.976,14.352c-18.338,9.568 -34.285,27.109 -47.839,53.422l0,-57.409l-97.274,0l0,392.293l103.652,0l0,-238.406c0,-51.03 20.731,-76.545 62.989,-76.545c11.163,0 20.731,0.798 28.704,3.19c7.973,2.392 14.352,7.176 19.933,12.757c4.784,5.582 7.973,13.555 10.365,23.921c2.392,10.365 3.19,23.123 3.19,39.069l0,236.014l103.652,0l0,-234.419c0,-23.92 6.379,-43.854 19.136,-59.801c11.96,-15.946 27.906,-23.92 47.042,-23.92c18.339,0 33.488,7.176 44.65,22.326c11.163,15.149 16.744,34.285 16.744,58.206l0,237.608l101.261,0Z" style="fill:#030404;fill-rule:nonzero;"/><path d="M2341.47,678.885l0,-436.944l160.263,0l0,-92.492l-430.556,0l0,92.492l159.465,0l0,436.944l110.828,0Z" style="fill:#030404;fill-rule:nonzero;"/><path d="M2692.29,478.752l-134.748,0l67.772,-210.499l0.798,0l66.178,210.499Zm185.777,200.133l-186.574,-529.436l-128.37,0l-188.966,529.436l117.207,0l37.474,-109.236l195.345,0l33.488,109.236l120.396,0Z" style="fill:#030404;fill-rule:nonzero;"/><path d="M3333.33,678.885l0,-284.651l-220.859,0l0,88.505l117.207,0c0,16.744 -3.189,31.893 -9.568,46.245c-7.176,15.15 -15.946,27.907 -27.906,39.07c-11.96,11.163 -25.515,19.934 -40.664,26.313c-15.947,6.378 -32.69,9.568 -51.029,9.568c-25.514,0 -47.839,-5.582 -66.178,-16.744c-18.339,-11.163 -33.488,-25.515 -45.448,-43.854c-11.959,-17.542 -20.73,-37.476 -26.311,-59.801c-5.581,-21.528 -8.771,-43.854 -8.771,-65.382c0,-62.99 13.555,-111.628 40.664,-145.117c26.311,-32.691 62.191,-49.435 106.841,-49.435c15.15,0 29.502,2.392 43.853,7.176c13.555,4.784 26.312,11.163 36.677,19.136c10.366,7.974 19.136,17.542 26.312,27.907c7.176,11.163 11.163,23.123 12.757,35.083l111.626,0c-2.392,-26.312 -9.568,-51.029 -21.528,-73.355c-12.757,-21.528 -29.501,-40.665 -49.434,-56.611c-20.731,-15.947 -44.65,-28.705 -71.759,-37.476c-27.907,-8.77 -57.408,-13.554 -88.504,-13.554c-43.055,0 -80.53,7.176 -113.22,21.528c-32.69,15.149 -59.799,35.083 -81.327,60.598c-21.528,25.515 -38.272,55.017 -49.434,89.302c-11.163,34.286 -16.744,70.964 -16.744,110.034c0,36.677 5.581,71.76 16.744,106.046c11.162,34.286 27.109,64.585 48.637,90.897c20.73,26.313 46.244,47.841 75.745,62.991c29.502,15.946 62.192,23.92 98.869,23.92c36.677,0 69.367,-6.379 97.274,-19.136c27.906,-11.96 48.637,-29.502 61.394,-51.828l2.392,52.625l91.692,0Z" style="fill:#030404;fill-rule:nonzero;"/><path d="M1107.86,859.333c-1.595,-1.755 -2.551,-3.668 -2.551,-6.06l0,-94.565c0,-2.392 0.956,-4.465 2.551,-6.06c1.754,-1.754 3.827,-2.551 6.219,-2.551l32.212,0c12.917,0 22.644,2.551 28.863,7.335c6.219,4.944 9.409,11.641 9.409,20.412c0,6.857 -1.914,12.439 -5.582,17.063c-3.667,4.625 -9.089,7.495 -16.265,8.611l0,0.32c8.292,0.956 14.83,3.827 19.614,8.451c4.625,4.784 7.017,11.323 7.017,19.455c0,3.987 -0.798,7.655 -2.552,11.163c-1.594,3.509 -3.986,6.698 -7.016,9.568c-3.189,2.711 -7.336,5.103 -12.439,6.698c-5.102,1.754 -10.843,2.552 -17.222,2.552l-36.039,0c-2.392,0 -4.465,-0.798 -6.219,-2.392Zm39.069,-11.323c8.452,0 14.671,-1.275 18.338,-3.668c3.828,-2.551 5.741,-7.335 5.741,-14.671c0,-3.03 -0.478,-5.581 -1.276,-7.814c-0.956,-2.232 -2.073,-3.986 -3.667,-5.421c-1.595,-1.436 -3.508,-2.393 -6.06,-3.19c-2.551,-0.797 -5.262,-1.276 -8.292,-1.595c-2.87,-0.319 -6.379,-0.478 -10.365,-0.478l-18.339,0l0,36.837l23.92,0Zm-3.508,-50.392c8.611,0 14.671,-1.435 18.338,-4.146c3.827,-2.87 5.741,-7.654 5.741,-14.352c0,-3.19 -0.638,-5.901 -1.595,-7.974c-1.116,-2.232 -2.711,-3.827 -4.943,-4.784c-2.233,-1.116 -4.465,-1.754 -6.857,-2.073c-2.392,-0.478 -5.262,-0.638 -8.93,-0.638l-22.166,0l0,33.967l20.412,0Z" style="fill:#389bd6;fill-rule:nonzero;"/><path d="M1272.87,861.893c-4.305,-1.116 -8.451,-2.711 -12.279,-4.784c-3.667,-2.233 -7.016,-4.944 -9.727,-8.133c-2.711,-3.03 -4.943,-6.857 -6.538,-11.322c-1.595,-4.465 -2.392,-9.409 -2.392,-14.671l0,-64.585c0,-2.711 0.957,-4.784 2.711,-6.379c1.754,-1.435 3.827,-2.232 6.219,-2.232c2.392,0 4.465,0.797 6.219,2.232c1.754,1.595 2.711,3.668 2.711,6.379l0,64.106c0,4.465 0.797,8.452 2.233,12.12c1.594,3.508 3.667,6.219 6.219,8.452c2.551,2.073 5.422,3.667 8.451,4.624c3.19,1.116 6.538,1.595 10.047,1.595c2.711,0 5.422,-0.319 7.973,-0.957c2.551,-0.638 5.103,-1.595 7.335,-3.03c2.392,-1.435 4.306,-3.189 6.06,-5.262c1.754,-2.073 3.189,-4.625 4.146,-7.655c0.957,-2.87 1.595,-6.219 1.595,-9.887l0,-64.106c0,-2.711 0.797,-4.784 2.551,-6.379c1.754,-1.435 3.827,-2.232 6.379,-2.232c2.392,0 4.465,0.797 6.219,2.232c1.754,1.595 2.551,3.668 2.551,6.379l0,64.585c0,6.538 -1.275,12.598 -3.667,17.86c-2.392,5.263 -5.582,9.409 -9.887,12.598c-4.146,3.349 -8.771,5.741 -14.193,7.495c-5.262,1.595 -11.003,2.552 -17.062,2.552c-4.944,0 -9.409,-0.638 -13.874,-1.595Z" style="fill:#389bd6;fill-rule:nonzero;"/><path d="M1392.92,859.82c-1.595,-1.435 -2.392,-3.349 -2.392,-5.741l0,-92.811c0,-3.508 0.957,-6.06 2.87,-8.133c1.754,-1.913 4.146,-2.87 7.017,-2.87c1.913,0 3.986,0.478 6.059,1.595c2.073,0.956 3.828,2.392 5.103,4.465l55.175,79.415l0,-77.821c0,-2.392 0.797,-4.305 2.392,-5.741c1.595,-1.275 3.509,-2.073 5.741,-2.073c2.073,0 3.987,0.798 5.581,2.073c1.754,1.276 2.552,3.19 2.552,5.741l0,92.811c0,3.349 -1.117,6.06 -3.03,7.974c-2.073,2.073 -4.465,3.029 -7.335,3.029c-1.755,0 -3.668,-0.478 -5.741,-1.594c-2.233,-0.957 -3.828,-2.392 -5.103,-4.306l-55.016,-78.937l0,77.183c0,2.392 -0.797,4.306 -2.392,5.581c-1.754,1.436 -3.667,2.073 -5.74,2.073c-2.233,0 -4.147,-0.637 -5.741,-1.913Z" style="fill:#389bd6;fill-rule:nonzero;"/><path d="M1646.76,859.66c-6.697,-2.551 -12.438,-6.219 -17.222,-11.003c-4.784,-4.625 -8.611,-10.844 -11.163,-18.179c-2.711,-7.336 -3.986,-15.628 -3.986,-25.037c0,-7.814 1.116,-15.309 3.508,-22.166c2.392,-6.857 5.741,-12.917 10.365,-18.18c4.465,-5.421 10.365,-9.568 17.701,-12.598c7.176,-3.03 15.468,-4.624 24.717,-4.624c11.96,0 22.803,1.914 32.052,5.741c2.711,1.116 3.987,3.189 3.987,6.06c0,1.913 -0.478,3.508 -1.754,5.103c-1.116,1.435 -2.711,2.232 -4.465,2.232c-0.797,0 -1.276,0 -1.754,-0.319c-3.987,-1.116 -7.017,-1.913 -9.09,-2.392c-2.232,-0.478 -4.943,-0.957 -8.452,-1.435c-3.667,-0.638 -6.856,-0.798 -9.886,-0.798c-6.698,0 -12.439,0.957 -17.382,3.03c-4.943,2.074 -8.93,5.104 -11.96,9.09c-3.03,3.827 -5.262,8.452 -6.697,13.555c-1.595,5.262 -2.233,11.003 -2.233,17.542c0,13.873 3.03,24.717 9.249,32.531c6.06,7.655 15.309,11.482 27.588,11.482c7.494,0 15.149,-0.957 23.281,-3.03l0,-30.458l-19.614,0c-1.913,0 -3.348,-0.638 -4.305,-2.074c-1.117,-1.435 -1.595,-3.03 -1.595,-4.624c0,-1.754 0.478,-3.349 1.595,-4.784c0.957,-1.436 2.392,-2.073 4.305,-2.073l30.139,0c2.233,0 3.987,0.797 5.263,2.232c1.275,1.435 1.913,3.349 1.913,5.741l0,38.113c0,4.944 -2.392,8.133 -7.016,9.409c-12.598,3.827 -24.399,5.741 -35.242,5.741c-7.973,0 -15.309,-1.276 -21.847,-3.828Z" style="fill:#389bd6;fill-rule:nonzero;"/><path d="M1808.01,766.371l-21.528,55.495l42.737,0l-21.209,-55.495Zm26.152,68.093l-52.464,0l-8.611,22.166c-0.638,1.914 -1.754,3.349 -3.189,4.306c-1.436,0.797 -3.03,1.276 -4.784,1.276c-1.595,0 -3.19,-0.319 -4.625,-1.116c-2.87,-1.436 -4.146,-3.668 -4.146,-6.379c0,-1.117 0.159,-2.073 0.638,-3.03l36.518,-91.057c1.754,-4.465 3.827,-7.495 6.059,-9.089c2.233,-1.436 5.103,-2.233 8.452,-2.233c3.189,0 5.9,0.797 8.292,2.233c2.233,1.594 4.146,4.624 6.06,9.089l36.517,91.057c0.319,1.116 0.638,2.073 0.638,3.03c0,1.435 -0.478,2.711 -1.276,3.987c-0.956,1.116 -1.913,2.073 -3.348,2.71c-1.276,0.479 -2.711,0.798 -4.147,0.798c-3.508,-0.16 -6.219,-2.073 -8.132,-5.582l-8.452,-22.166Z" style="fill:#389bd6;fill-rule:nonzero;"/><path d="M1906.51,850.252c-0.319,-0.319 -0.638,-0.638 -0.638,-1.117c-0.159,-0.478 -0.319,-0.956 -0.319,-1.435c0,-1.913 0.798,-3.827 2.552,-5.9c1.754,-2.233 3.508,-3.189 5.262,-3.189c0.319,0 0.638,0 0.957,0.159c0.319,0.159 0.638,0.319 0.957,0.478c9.408,6.698 19.774,10.047 31.095,10.047c7.336,0 13.396,-1.435 18.02,-4.146c4.625,-2.871 7.017,-7.017 7.017,-12.598c0,-4.784 -1.276,-8.452 -3.987,-10.844c-2.551,-2.552 -6.857,-4.784 -12.917,-6.857l-23.601,-7.814c-8.451,-2.871 -14.671,-6.379 -18.657,-10.844c-3.987,-4.306 -6.06,-10.366 -6.06,-17.861c0,-6.219 1.914,-11.641 5.422,-16.266c3.668,-4.784 8.452,-8.292 14.671,-10.684c6.06,-2.232 12.917,-3.508 20.571,-3.508c7.495,0 14.511,1.116 21.368,3.508c6.857,2.233 11.96,5.103 15.628,8.133c1.275,1.116 1.914,2.551 1.914,4.306c0,1.913 -0.639,3.508 -1.914,4.943c-1.276,1.595 -2.871,2.233 -4.784,2.233c-1.116,0 -2.392,-0.319 -3.508,-1.117c-8.771,-5.262 -17.86,-7.814 -27.269,-7.814c-7.654,0 -13.554,1.276 -18.179,3.828c-4.465,2.551 -6.857,6.538 -6.857,11.8c0,3.828 1.116,6.858 3.189,9.09c2.233,2.392 5.582,4.146 10.047,5.582l23.601,7.654c4.784,1.595 8.77,3.19 11.959,4.944c3.349,1.594 6.22,3.667 8.771,6.059c2.711,2.392 4.625,5.103 5.9,8.452c1.276,3.349 1.914,7.176 1.914,11.482c0,6.698 -1.754,12.598 -5.263,17.542c-3.508,4.943 -8.451,8.611 -14.989,11.162c-6.379,2.552 -13.874,3.828 -22.485,3.828c-16.425,0 -29.501,-4.466 -39.388,-13.236Z" style="fill:#389bd6;fill-rule:nonzero;"/><path d="M2046.64,859.341c-1.754,-1.435 -2.552,-3.508 -2.552,-6.219l0,-94.405c0,-2.711 0.798,-4.944 2.552,-6.379c1.754,-1.435 3.827,-2.233 6.219,-2.233c2.392,0 4.465,0.798 6.219,2.233c1.754,1.435 2.711,3.668 2.711,6.379l0,94.405c0,2.711 -0.957,4.784 -2.711,6.379c-1.754,1.435 -3.827,2.232 -6.379,2.232c-2.392,0 -4.305,-0.797 -6.059,-2.392Z" style="fill:#389bd6;fill-rule:nonzero;"/><path d="M2148.59,859.501c-1.754,-1.595 -2.711,-3.668 -2.711,-6.379l0,-88.824l-28.065,0c-2.233,0 -3.987,-0.797 -5.263,-2.233c-1.116,-1.275 -1.754,-3.029 -1.754,-4.784c0,-1.913 0.638,-3.667 1.754,-5.103c1.276,-1.275 3.03,-2.073 5.263,-2.073l73.832,0c2.233,0 3.827,0.798 5.103,2.073c1.275,1.436 1.914,3.19 1.914,4.944c0,1.914 -0.639,3.668 -1.914,4.943c-1.276,1.436 -2.87,2.233 -5.103,2.233l-27.906,0l0,88.824c0,2.711 -0.957,4.784 -2.711,6.379c-1.754,1.595 -3.828,2.232 -6.22,2.232c-2.391,0 -4.465,-0.637 -6.219,-2.232Z" style="fill:#389bd6;fill-rule:nonzero;"/><path d="M2255.22,754.092l0,-0.957c0,-2.392 0.957,-4.465 2.711,-5.741c1.914,-1.435 4.146,-2.073 6.538,-2.073c2.552,0 4.784,0.638 6.538,2.073c1.914,1.276 2.871,3.349 2.871,5.741l0,0.957l-4.784,70.485c-0.16,1.595 -0.638,2.711 -1.595,3.668c-0.797,0.797 -1.913,1.276 -3.03,1.276c-0.797,0 -1.435,-0.16 -2.073,-0.638c-0.638,-0.319 -1.275,-0.797 -1.754,-1.595c-0.478,-0.797 -0.638,-1.594 -0.797,-2.711l-4.625,-70.485Zm2.552,105.249c-1.754,-1.754 -2.711,-3.827 -2.711,-6.378c0,-2.392 0.957,-4.465 2.711,-6.22c1.754,-1.913 4.146,-2.711 7.016,-2.711c2.871,0 5.103,0.798 7.017,2.552c1.754,1.754 2.711,3.987 2.711,6.379c0,2.551 -0.957,4.624 -2.711,6.378c-1.754,1.755 -4.146,2.711 -7.017,2.711c-2.87,0 -5.103,-0.956 -7.016,-2.711Z" style="fill:#389bd6;fill-rule:nonzero;"/></g><defs><linearGradient id="_Linear1" x1="0" y1="0" x2="1" y2="0" gradientUnits="userSpaceOnUse" gradientTransform="matrix(6.11287e-15,-998.327,998.306,6.113e-15,590.646,999.16)"><stop offset="0" style="stop-color:#ef3f4e;stop-opacity:1"/><stop offset="1" style="stop-color:#ee2e69;stop-opacity:1"/></linearGradient><linearGradient id="_Linear2" x1="0" y1="0" x2="1" y2="0" gradientUnits="userSpaceOnUse" gradientTransform="matrix(738.048,0,0,738.063,0.00211003,568.701)"><stop offset="0" style="stop-color:#3aa1da;stop-opacity:1"/><stop offset="1" style="stop-color:#2160ad;stop-opacity:1"/></linearGradient></defs></svg>